<?xml version="1.0" encoding="UTF-8"?>
<svg width="1200pt" height="1200pt" version="1.1" viewBox="0 0 1200 1200" xmlns="http://www.w3.org/2000/svg">
 <path d="m798.05 695.76c-9.8438-2.625-19.734-4.4531-29.578-5.4844l154.69-577.26c2.0625-7.7344 7.0312-14.203 13.969-18.188s15-5.0625 22.734-3 14.203 7.0312 18.188 13.969 5.0625 15 3 22.734l-154.69 577.26c-9.0469-4.0312-18.469-7.4062-28.359-10.031zm-580.92 65.812 13.125 89.391 107.86-89.391h-121.03zm573.14-36.797c-85.172-22.828-173.02 27.891-195.84 113.06l-28.641 106.97-32.625 53.766c-2.9062 16.078 13.969 25.219 24.844 28.078 8.5781 2.2969 17.344 2.1562 24-0.375 6.4219-2.4375 10.359-6.7969 12.094-13.359 0 0 0.65625-2.0156 1.1719-2.9531 5.7656-11.25 21.562-42.844 25.219-53.672 4.125-12.141 8.625-30.141 13.359-49.219 7.5469-30.422 15.375-61.828 24.516-81.422 5.2969-11.297 24.188-32.859 29.859-39.234 5.5312-6.1875 15-6.7031 21.188-1.1719s6.7031 15 1.1719 21.188c-10.219 11.391-22.688 26.859-25.031 31.875-7.9219 16.969-15.703 48.328-22.594 75.984-4.9219 19.734-9.5156 38.344-14.109 51.703-4.6406 13.641-21.703 47.438-26.109 56.016-3.9375 18.516 15.188 28.969 27.422 32.203 12.516 3.3281 34.875 4.2656 40.078-15.094l61.359-228.74c2.1562-8.0156 10.359-12.75 18.375-10.594 8.0156 2.1562 12.75 10.359 10.594 18.375l-61.172 228.32c-5.2031 19.406 17.016 30.844 29.484 34.219 12.234 3.2812 36.375 4.4531 42.234-13.781 0.51562-9.9375 2.625-47.297 5.3906-61.359 2.7188-13.828 8.0156-32.297 13.641-51.797 7.875-27.422 16.781-58.453 18.422-77.109 0.46875-5.5312-2.5781-25.125-5.7188-40.125-1.6875-8.1094 3.5156-16.078 11.625-17.766 8.1094-1.6875 16.078 3.5156 17.766 11.625 1.7344 8.3438 7.3594 36.469 6.2344 48.891-1.875 21.562-10.828 52.688-19.5 82.781-5.4375 18.891-10.547 36.75-13.031 49.312-2.2031 11.156-4.3594 46.453-4.9688 59.062-0.046874 1.0781-0.51562 3.1406-0.51562 3.1406-5.2969 19.781 7.9688 30.844 20.906 34.312 12.516 3.3281 28.828 0.70312 34.688-17.391l-1.4062-62.953 28.641-106.97c22.828-85.172-27.891-173.02-113.06-195.84zm-274.45-19.875c0 9.3281-1.5938 18.328-4.5469 26.672h118.22c19.594-15.797 42.188-27.656 66.422-34.734-3.4219-10.781-13.547-18.656-25.406-18.656h-159.24c2.9531 8.3438 4.5469 17.344 4.5469 26.672zm-206.58-154.6c15.469 0 28.031-12.562 28.031-28.031s-12.562-28.031-28.031-28.031-28.031 12.562-28.031 28.031 12.562 28.031 28.031 28.031zm262.18-81c23.484 0 42.516-19.078 42.516-42.516s-19.078-42.516-42.516-42.516-42.516 19.078-42.516 42.516 19.078 42.516 42.516 42.516zm422.02 197.53-8.8125-23.719-8.8125 23.719c-1.5469 4.0781-4.7344 7.3125-8.8594 8.8594l-23.719 8.8125 23.719 8.8125c4.0781 1.5469 7.3125 4.7344 8.8594 8.8594l8.8125 23.719 8.8125-23.719c1.5469-4.0781 4.7344-7.3125 8.8594-8.8594l23.719-8.8125-23.719-8.8125c-4.0781-1.5469-7.3125-4.7344-8.8594-8.8594zm-492.61-56.391c15.469 0 28.031-12.562 28.031-28.031s-12.562-28.031-28.031-28.031-28.031 12.562-28.031 28.031 12.562 28.031 28.031 28.031zm-107.02-280.03c32.156 0 58.312-26.156 58.312-58.312s-26.156-58.312-58.312-58.312-58.312 26.156-58.312 58.312 26.156 58.312 58.312 58.312zm668.34 98.531c-4.0781-1.5469-7.3125-4.7344-8.8594-8.8594l-8.8125-23.719-8.8125 23.719c-1.5469 4.0781-4.7344 7.3125-8.8594 8.8594l-23.719 8.8125 23.719 8.8125c4.0781 1.5469 7.3125 4.7344 8.8594 8.8594l8.8125 23.719 8.8125-23.719c1.5469-4.0781 4.7344-7.3125 8.8594-8.8594l23.719-8.8125zm-677.68 275.95c0 27.938 22.734 50.672 50.672 50.672s50.672-22.734 50.672-50.672-22.734-50.672-50.672-50.672-50.672 22.734-50.672 50.672zm165.71 350.76c-14.766-3.9375-27.562-11.906-36.094-22.359-10.406-12.75-13.781-28.5-9.5625-44.344l0.5625-2.0625 32.766-53.953 27.562-102.84c6.8906-25.734 18.797-48.797 34.359-68.484h-107.3c-14.625 14.812-34.922 24-57.375 24-20.719 0-39.609-7.8281-53.906-20.719l-145.82 120.84 25.688 174.79c3.2812 22.172 22.594 38.859 44.953 38.859h258.19c21.094 0 39.469-14.812 44.25-35.062-3.8438-3.7969-7.2188-8.0625-9.8438-12.703-14.203 7.4531-32.109 8.4375-48.469 4.0312zm-350.44-324.1h159.24c-2.9531-8.3438-4.5469-17.344-4.5469-26.672s1.5938-18.328 4.5469-26.672h-159.24c-14.719 0-26.672 11.953-26.672 26.672s11.953 26.672 26.672 26.672zm9.4219 137.53-52.266 40.922c-3.6562-1.5469-7.7344-2.3906-11.953-2.3906-17.016 0-30.844 13.828-30.844 30.844s13.828 30.844 30.844 30.844 30.844-13.828 30.844-30.844c0-1.6406-0.14062-3.1875-0.42188-4.7812l38.812-30.375-5.0156-34.172z" fill="#1bb119"/>
</svg>
