<?xml version="1.0" encoding="UTF-8"?>
<svg width="1200pt" height="1200pt" version="1.1" viewBox="0 0 1200 1200" xmlns="http://www.w3.org/2000/svg">
 <path d="m170.72 127.31c-61.078 0-110.72 49.688-110.72 110.72v123.74h221.39v-123.74c0-61.031-49.641-110.72-110.67-110.72z"/>
 <path d="m1029.3 127.31h-762.61c28.641 24.844 47.484 60.562 50.25 100.64 0.32813 1.3125 0.51563 2.6719 0.51563 4.0781v840.61l822.56 0.046875v-834.66c0-61.031-49.688-110.72-110.72-110.72zm-629.58 86.766h629.58c9.9375 0 18 8.0625 18 18s-8.0625 18-18 18h-629.58c-9.9375 0-18-8.0625-18-18s8.0625-18 18-18zm525.84 173.68c0 9.9375-8.0625 18-18 18h-125.39c-9.9375 0-18-8.0625-18-18s8.0625-18 18-18h125.39c9.9375 0 18 8.0625 18 18zm-143.39 199.82c-9.9375 0-18-8.0625-18-18s8.0625-18 18-18h198.56c9.9375 0 18 8.0625 18 18s-8.0625 18-18 18zm143.39 185.76c0 9.9375-8.0625 18-18 18h-125.39c-9.9375 0-18-8.0625-18-18s8.0625-18 18-18h125.39c9.9375 0 18 8.0625 18 18zm-543.84-405.42c0-9.9375 8.0625-18 18-18h158.81c9.9375 0 18 8.0625 18 18s-8.0625 18-18 18h-140.81v185.53h185.53v-50.953c0-9.9375 8.0625-18 18-18s18 8.0625 18 18v68.953c0 9.9375-8.0625 18-18 18h-221.53c-9.9375 0-18-8.0625-18-18zm257.53 607.13c0 9.9375-8.0625 18-18 18h-221.53c-9.9375 0-18-8.0625-18-18v-221.53c0-9.9375 8.0625-18 18-18h158.81c9.9375 0 18 8.0625 18 18s-8.0625 18-18 18h-140.81v185.53h185.53v-50.953c0-9.9375 8.0625-18 18-18s18 8.0625 18 18zm50.812-208.74-150.47 148.4c-0.14062 0.14062-0.375 0.1875-0.5625 0.32812-1.5469 1.4531-3.2812 2.5781-5.1562 3.375-0.28125 0.09375-0.51562 0.1875-0.79688 0.28125-1.9688 0.70312-4.0781 1.1719-6.1406 1.1719-2.2031 0-4.3594-0.46875-6.4688-1.2656-0.65625-0.23438-1.2188-0.70312-1.8281-1.0781-1.125-0.60938-2.2969-1.0781-3.3281-1.9219l-54.328-45.984c-7.5938-6.4219-8.5312-17.766-2.1094-25.359s17.766-8.5312 25.359-2.1094l41.766 35.344 138.74-136.82c7.0781-6.9844 18.469-6.8906 25.453 0.1875 7.0312 7.0781 6.9375 18.469-0.14062 25.453zm0-385.6-150.47 148.4c-0.14062 0.14062-0.375 0.1875-0.51562 0.32812-1.5938 1.4531-3.2812 2.625-5.2031 3.4219-0.23438 0.09375-0.51562 0.14062-0.75 0.23438-1.9688 0.75-4.0781 1.1719-6.1875 1.1719-2.2031 0-4.3594-0.46875-6.4219-1.2656-0.70312-0.28125-1.2656-0.75-1.9219-1.125-1.0781-0.60938-2.25-1.0312-3.2344-1.875l-54.328-45.984c-7.5938-6.4219-8.5312-17.766-2.1094-25.359s17.766-8.5312 25.359-2.1094l41.766 35.344 138.74-136.82c7.0781-6.9844 18.469-6.8906 25.453 0.1875s6.8906 18.469-0.1875 25.453zm290.68 592.45h-198.56c-9.9375 0-18-8.0625-18-18s8.0625-18 18-18h198.56c9.9375 0 18 8.0625 18 18s-8.0625 18-18 18zm85.688-90.891h-284.26c-9.9375 0-18-8.0625-18-18s8.0625-18 18-18h284.26c9.9375 0 18 8.0625 18 18s-8.0625 18-18 18zm0-385.6h-284.26c-9.9375 0-18-8.0625-18-18s8.0625-18 18-18h284.26c9.9375 0 18 8.0625 18 18s-8.0625 18-18 18z"/>
</svg>
