<?xml version="1.0" encoding="UTF-8"?>
<svg width="1200pt" height="1200pt" version="1.1" viewBox="0 0 1200 1200" xmlns="http://www.w3.org/2000/svg">
 <path d="m271.22 163.69c-3.5625-3.5625-8.4844-5.7656-13.875-5.7656s-10.312 2.2031-13.875 5.7656-5.7656 8.4844-5.7656 13.875v73.359c0 5.3906 2.2031 10.312 5.7656 13.875s8.4844 5.7656 13.875 5.7656 10.312-2.2031 13.875-5.7656 5.7656-8.4844 5.7656-13.875v-73.359c0-5.3906-2.2031-10.266-5.7656-13.875zm255.84-5.8125c-5.3906 0-10.312 2.2031-13.875 5.7656s-5.7656 8.4844-5.7656 13.875v73.359c0 5.3906 2.2031 10.312 5.7656 13.875s8.4844 5.7656 13.875 5.7656 10.312-2.2031 13.875-5.7656 5.7656-8.4844 5.7656-13.875v-73.359c0-5.3906-2.2031-10.266-5.7656-13.875-3.5625-3.5625-8.4844-5.7656-13.875-5.7656zm269.68 0c-5.3906 0-10.312 2.2031-13.875 5.7656s-5.7656 8.4844-5.7656 13.875v73.359c0 5.3906 2.2031 10.312 5.7656 13.875s8.4844 5.7656 13.875 5.7656 10.312-2.2031 13.875-5.7656 5.7656-8.4844 5.7656-13.875v-73.359c0-5.3906-2.2031-10.266-5.7656-13.875-3.5625-3.5625-8.4844-5.7656-13.875-5.7656zm-704.02 232.26v-147.52c0-5.9062 2.1562-11.203 5.625-14.953 3.1406-3.4219 7.3594-5.5312 11.953-5.5312h94.734v28.828c0 14.391 5.9062 27.516 15.375 36.984s22.594 15.375 36.984 15.375 27.516-5.9062 36.984-15.375 15.375-22.594 15.375-36.984v-28.828h164.95v28.828c0 14.391 5.9062 27.516 15.375 36.984s22.594 15.375 36.984 15.375 27.516-5.9062 36.984-15.375 15.375-22.594 15.375-36.984v-28.828h164.95v28.828c0 14.391 5.9062 27.516 15.375 36.984s22.594 15.375 36.984 15.375 27.516-5.9062 36.984-15.375 15.375-22.594 15.375-36.984v-28.828h94.734c4.5938 0 8.8125 2.1094 11.953 5.5312 3.4688 3.75 5.625 9.0469 5.625 14.953v147.52zm523.45 198.32c-22.828-21.469-54.375-34.781-89.156-34.781s-66.328 13.312-89.156 34.781c-22.547 21.234-36.562 50.438-36.562 82.5v98.859c0 32.438-22.547 55.078-43.688 76.312-3.9375 3.9375-7.7812 7.8281-11.625 11.906-2.3906 2.625-3.5156 5.5312-3.5156 8.3438 0 1.7812 0.375 3.4688 1.0312 5.0156 0.75 1.6406 1.8281 3.2344 3.2812 4.5469 2.625 2.4375 6.4219 4.0312 11.062 4.0312h338.11c4.6406 0 8.3906-1.5469 11.016-3.9375 1.3594-1.2656 2.4844-2.8125 3.2812-4.5938 0.70313-1.5938 1.0781-3.2812 1.0781-5.0625 0-2.8125-1.0781-5.7656-3.375-8.2969-3.0469-3.3281-7.3125-7.6875-11.672-12.094-21.047-21.469-43.734-44.625-43.734-76.828v-98.25c0-32.062-13.969-61.266-36.562-82.5zm-135.28 324.28c2.8125 6.0938 6.75 11.484 11.578 15.984 9.0469 8.3906 21.188 13.547 34.594 13.547s25.547-5.1562 34.594-13.547c4.8281-4.5 8.7656-9.8906 11.578-15.984zm67.453-390.42c1.0312-1.3594 1.875-2.8125 2.625-4.3594 1.5938-3.375 2.5312-7.2188 2.5312-11.344 0-7.3125-2.9531-13.922-7.7344-18.703s-11.391-7.7344-18.703-7.7344-13.922 2.9531-18.703 7.7344-7.7344 11.391-7.7344 18.703c0 4.125 0.89063 7.9688 2.5312 11.344 0.70313 1.5469 1.5938 3 2.625 4.3594 6.9844-0.89062 14.109-1.3594 21.328-1.3594s14.344 0.46875 21.328 1.3594zm-75.562 7.7812c-3.1406-7.2188-4.875-15.188-4.875-23.484 0-16.312 6.6094-31.125 17.344-41.812 10.688-10.688 25.5-17.344 41.812-17.344s31.125 6.6094 41.812 17.344c10.688 10.688 17.344 25.5 17.344 41.812 0 8.2969-1.7344 16.219-4.875 23.484 21.656 7.5469 41.156 19.453 57.234 34.594 28.922 27.234 46.922 64.828 46.922 106.27v98.25c0 18.984 17.766 37.125 34.266 53.953 3.9844 4.0781 7.875 8.0625 12.422 12.984 8.3438 9.1406 12.094 19.828 12.094 30.281 0 6.375-1.4062 12.656-4.0312 18.469-2.5312 5.625-6.2812 10.828-11.109 15.188-8.3906 7.6875-19.781 12.609-33 12.609h-88.312c-4.0781 15.516-12.516 29.297-23.906 39.891-14.906 13.875-34.875 22.359-56.812 22.359s-41.906-8.4844-56.812-22.359c-11.391-10.594-19.828-24.375-23.906-39.891h-88.312c-13.406 0-24.891-5.0625-33.328-12.844-4.6406-4.3125-8.2969-9.4688-10.828-15.141-2.5781-5.8125-3.9844-12.047-3.9844-18.281 0-10.641 3.7969-21.469 12.328-30.609 3.75-4.0781 8.0625-8.3438 12.375-12.703 16.5-16.594 34.078-34.219 34.078-53.297v-98.859c0-41.438 17.953-79.031 46.922-106.27 16.078-15.141 35.578-27.047 57.234-34.594zm397.92 148.36c-6.9375-5.7656-7.875-16.031-2.1094-22.922 5.7656-6.9375 16.031-7.875 22.922-2.1094l45.844 38.203 79.406-98.391c5.6719-7.0312 15.938-8.1562 22.922-2.4844 7.0312 5.6719 8.1562 15.938 2.4844 22.922l-89.812 111.28-0.046876-0.046875-0.1875 0.1875c-5.7656 6.9375-16.031 7.875-22.922 2.1094l-58.594-48.797zm192.05-126.84c-27.516-27.516-65.484-44.531-107.44-44.531-41.953 0-79.969 17.016-107.44 44.531-27.516 27.516-44.531 65.484-44.531 107.44 0 41.953 17.016 79.969 44.531 107.44 27.516 27.516 65.484 44.531 107.44 44.531 41.953 0 79.969-17.016 107.44-44.531 27.516-27.516 44.531-65.484 44.531-107.44 0-41.953-17.016-79.969-44.531-107.44zm-68.625-73.125c35.438 7.5938 67.078 25.312 91.781 50.016 33.422 33.422 54.094 79.594 54.094 130.6 0 51.004-20.672 97.172-54.094 130.6-24.703 24.703-56.344 42.422-91.781 50.016v181.87c0 14.344-5.4844 27.516-14.297 37.078-9.1406 9.9375-21.891 16.125-35.953 16.125h-833.58c-14.109 0-26.812-6.1875-35.953-16.125-8.8125-9.6094-14.297-22.734-14.297-37.078l-0.046876-779.02c0-14.344 5.4844-27.516 14.297-37.078 9.1406-9.9375 21.891-16.125 35.953-16.125h94.734v-11.812c0-14.391 5.9062-27.516 15.375-36.984s22.594-15.375 36.984-15.375c14.391 0 27.516 5.9062 36.984 15.375s15.375 22.594 15.375 36.984v11.812h164.95v-11.812c0-14.391 5.9062-27.516 15.375-36.984s22.594-15.375 36.984-15.375c14.391 0 27.516 5.9062 36.984 15.375s15.375 22.594 15.375 36.984v11.812h164.95v-11.812c0-14.391 5.9062-27.516 15.375-36.984s22.594-15.375 36.984-15.375c14.391 0 27.516 5.9062 36.984 15.375s15.375 22.594 15.375 36.984v11.812h94.734c14.109 0 26.812 6.1875 35.953 16.125 8.8125 9.6094 14.297 22.734 14.297 37.078v235.87zm-38.812-4.125c-51 0-97.172 20.672-130.6 54.094-33.422 33.422-54.094 79.594-54.094 130.6s20.672 97.172 54.094 130.6c33.422 33.422 79.594 54.094 130.6 54.094 2.0625 0 4.0781-0.046875 6.0938-0.09375v177.89c0 5.9062-2.1562 11.203-5.625 14.953-3.1406 3.4219-7.3594 5.5312-11.953 5.5312l-833.53 0.046875c-4.5938 0-8.8125-2.1094-11.953-5.5312-3.4688-3.75-5.625-9.0469-5.625-14.953v-598.74h868.64v51.656c-2.0156-0.046874-4.0312-0.09375-6.0938-0.09375z" fill-rule="evenodd"/>
</svg>
