<?xml version="1.0" encoding="UTF-8"?>
<svg width="1200pt" height="1200pt" version="1.1" viewBox="0 0 1200 1200" xmlns="http://www.w3.org/2000/svg">
 <path d="m600 141.84-517.6 367.36 46.125 64.969 460.6-326.9c3.2344-2.2969 7.0312-3.4688 10.875-3.4688 3.7969 0 7.5938 1.1719 10.875 3.4688l460.64 326.9 46.125-64.969z"/>
 <path d="m301.5 205.5h-90.75v166.6l90.75-64.406z"/>
 <path d="m989.26 1097.3v-535.45l-389.26-276.24-389.26 276.24v535.45h82.5v-435.56c0-10.359 8.3906-18.75 18.75-18.75h274.69c10.359 0 18.75 8.3906 18.75 18.75v435.56zm-328.64-478.5c0-10.359 8.3906-18.75 18.75-18.75h208.6c10.359 0 18.75 8.3906 18.75 18.75v208.6c0 10.359-8.3906 18.75-18.75 18.75h-208.6c-10.359 0-18.75-8.3906-18.75-18.75z"/>
 <path d="m567.94 680.44h-237.19v416.81h237.19zm-41.906 227.16h-7.6406c-10.359 0-18.75-8.3906-18.75-18.75s8.3906-18.75 18.75-18.75h7.6406c10.359 0 18.75 8.3906 18.75 18.75s-8.3906 18.75-18.75 18.75z"/>
 <path d="m698.11 637.5h171.1v171.1h-171.1z"/>
</svg>
