<?xml version="1.0" encoding="UTF-8"?>
<svg width="1200pt" height="1200pt" version="1.1" viewBox="0 0 1200 1200" xmlns="http://www.w3.org/2000/svg">
 <path d="m965.34 519.28c16.758 0 30.375-13.641 30.375-30.398 0-16.758-13.617-30.375-30.375-30.375s-30.375 13.617-30.375 30.375c0 16.758 13.617 30.398 30.375 30.398z"/>
 <path d="m600.02 831.42c97.453 0 176.7-79.289 176.7-176.74 0-97.453-79.242-176.72-176.7-176.72-97.453 0-176.74 79.266-176.74 176.72 0 97.453 79.289 176.74 176.74 176.74zm-91.242-192.94c3.0938-3.0938 7.3594-4.9922 12.094-4.9922h62.062v-62.062c0-4.7109 1.8984-8.9766 4.9922-12.07s7.3828-4.9922 12.094-4.9922c4.7109 0 9 1.8984 12.094 4.9922s4.9922 7.3594 4.9922 12.07v62.062h62.039c2.3672 0 4.6172 0.46875 6.6562 1.3359 1.0312 0.42188 1.9922 0.96094 2.9062 1.5703 4.5469 3.0703 7.5234 8.2734 7.5234 14.156 0 4.7109-1.9219 9-4.9922 12.094-3.0703 3.0938-7.3594 5.0156-12.094 5.0156h-62.039v62.016c0 4.7109-1.9219 9-4.9922 12.094-3.0703 3.0938-7.3594 5.0156-12.094 5.0156-4.7344 0-9.0234-1.9219-12.094-5.0156-3.0703-3.0938-4.9922-7.3828-4.9922-12.094v-62.016h-62.062c-4.7344 0-9.0234-1.9219-12.094-5.0156-3.0938-3.0938-4.9922-7.3828-4.9922-12.094 0-4.7109 1.8984-8.9766 4.9922-12.07z"/>
 <path d="m1055.8 346.99h-199.95c-13.031 0-24.07-9.75-25.664-22.711l-8.8359-71.016c-3.75-30.023-29.344-52.664-59.602-52.664h-323.95c-30.281 0-55.875 22.641-59.625 52.664l-8.8125 71.016c-1.5938 12.938-12.656 22.688-25.664 22.688h-199.48c-33.117 0-60.07 26.953-60.07 60.07v532.29c0 33.117 26.953 60.07 60.07 60.07h911.58c33.117 0 60.07-26.953 60.07-60.07v-532.29c0-33.117-26.953-60.047-60.07-60.047zm-90.445 77.32c35.602 0 64.57 28.969 64.57 64.57 0 35.625-28.992 64.594-64.57 64.594-35.602 0-64.57-28.992-64.57-64.594 0-35.602 28.992-64.57 64.57-64.57zm-561.61 153.09c1.2656-3.1875 2.6016-6.3516 4.0078-9.4453 10.57-23.344 25.289-44.438 43.195-62.344 38.18-38.203 90.914-61.875 149.09-61.875 58.148 0 110.88 23.672 149.04 61.875 17.906 17.906 32.625 39 43.195 62.344 1.4062 3.0938 2.7422 6.2578 4.0078 9.4453 9.4453 23.93 14.648 50.016 14.648 77.273 0 61.805-26.695 117.47-69.188 156.07-2.4844 2.2734-5.0391 4.4766-7.6406 6.6328-1.3125 1.0781-2.625 2.1562-3.9609 3.1875-2.6484 2.0859-5.3438 4.1016-8.1094 6.0703s-5.5547 3.8672-8.4141 5.6953c-1.4297 0.91406-2.8594 1.8281-4.3125 2.6953-2.9062 1.7578-5.8359 3.4453-8.8359 5.0859-10.453 5.6719-21.445 10.5-32.859 14.391-21.211 7.1719-43.945 11.086-67.57 11.086-58.148 0-110.88-23.648-149.09-61.852-38.203-38.18-61.852-90.914-61.852-149.06 0-27.258 5.2031-53.344 14.648-77.273zm652.05 387.8h-911.58c-7.1484 0-13.617-2.9062-18.281-7.6172 4.6875 4.6875 11.156 7.5938 18.281 7.5938h911.58c7.125 0 13.594-2.9062 18.281-7.5938-4.6641 4.7109-11.133 7.6172-18.281 7.6172z"/>
</svg>
